<svg id="Layer_1" data-name="Layer 1" xmlns="http://www.w3.org/2000/svg" viewBox="0 0 1920 1080">
  <defs>
    <style>.logo-white{fill:#ffffff;}</style>
  </defs>
  <path class="logo-white" d="M879.89,456.26V596.18H961v18.48H858.53V456.26Z"/>
  <path class="logo-white" d="M1086.77,456.26v18.48h-83.28V596.18h83.28v18.48H982.13V456.26Zm-25.2,69.6V544.1H991.49V525.86Z"/>
  <path class="logo-white" d="M1129.73,456.26l77.52,127.2h-4.8V456.26h21.12V614.18h-20.4l-77-126.24h4.08l.24,126.24h-21.36V456.26Z"/>
  <path class="logo-white" d="M1281.89,456.26v76.8l67.2-76.8h24l-55.92,67,59.52,91h-24.24l-49.92-76.32-20.64,23v53.28h-21.36V456.26Z"/>
  <path class="logo-white" d="M1460.92,456.26a49.87,49.87,0,0,1,24.25,5.76,39.88,39.88,0,0,1,16.2,16.08q5.63,10.32,5.63,24,0,13.45-5.88,23.64a39.72,39.72,0,0,1-16.55,15.72Q1473.88,547,1460,547h-43.2v-17h41q12.72,0,20.41-7.56t7.67-19.8q0-12.72-7.67-20.28t-20.41-7.56h-38.63V614.66H1397.8V456.26Zm8.16,79L1507,614.66h-22.79l-36.25-79Z"/>
  <path class="logo-white" d="M1596.76,456.26l51.36,158.4h-22.8l-43.2-137.28H1584l-42.72,137.28h-22.8l51.12-158.4ZM1622,561.14l.24,16.32h-78l.24-16.32Z"/>
  <path class="logo-white" d="M1725.64,456.26q15.6,0,27.24,5.52a41.73,41.73,0,0,1,18,15.72q6.36,10.22,6.36,23.88v68.4q0,13.68-6.36,23.76a41.93,41.93,0,0,1-18,15.6q-11.64,5.54-27.24,5.52H1669V456.26Zm22.08,131.88q7.92-8,8.16-21.72V504.74q0-13.68-7.92-21.84t-21.36-8.16h-36.24V596.18h36.24Q1739.8,596.18,1747.72,588.14Z"/>
  <path class="logo-white" d="M572.59,614.13l21.53,21.4A227.77,227.77,0,0,0,663,472.09C663,346,560.73,243.73,434.61,243.73S206.25,346,206.25,472.09,308.49,700.46,434.61,700.46a227.36,227.36,0,0,0,142.56-50l-21.92-21.37a197.07,197.07,0,0,1-120.64,41c-109.37,0-198-88.66-198-198s88.66-198,198-198,198,88.65,198,198A197.4,197.4,0,0,1,572.59,614.13Z"/>
  <path class="logo-white" d="M528.12,337.75,513,353.86A143.27,143.27,0,0,0,318.8,560.33l-15.15,16.11A165.18,165.18,0,0,1,528.12,337.75Z"/>
  <polygon class="logo-white" points="603.6 673.63 632.41 703.53 434.08 912.95 161.59 601.86 191.15 571.6 434.08 848.07 603.6 673.63"/>
  <path class="logo-white" d="M434.61,167.05c-168.48,0-305,136.57-305,305A304.23,304.23,0,0,0,150.76,584l6.2-6.19,21.67-21.67,3.11-3.11a265.49,265.49,0,0,1-12.57-81c0-146.59,118.84-265.44,265.44-265.44S700.05,325.5,700.05,472.09a264.63,264.63,0,0,1-79.46,189.39l28,28a304.05,304.05,0,0,0,91.06-217.39C739.65,303.62,603.08,167.05,434.61,167.05Z"/>
  <polygon class="logo-white" points="648.59 689.48 632.41 703.53 785.19 856.31 798.64 842.87 648.59 689.48"/>
  <polygon class="logo-white" points="801.97 886.68 719.59 804.31 746.26 777.64 829.56 860.94 801.97 886.68"/>
</svg>