<svg id="Layer_1" data-name="Layer 1" xmlns="http://www.w3.org/2000/svg" viewBox="0 0 1080 1920"><defs><style>.cls-1{fill:#f83c18;}.cls-2{fill:#2b4353;}</style></defs><path class="cls-1" d="M633,1034.13l21.53,21.4a227.74,227.74,0,0,0,68.86-163.44C723.41,766,621.17,663.73,495,663.73S266.68,766,266.68,892.09,368.92,1120.46,495,1120.46a227.39,227.39,0,0,0,142.57-50l-21.92-21.37a197.1,197.1,0,0,1-120.65,41c-109.37,0-198-88.66-198-198s88.65-198,198-198,198,88.65,198,198A197.37,197.37,0,0,1,633,1034.13Z"/><path class="cls-1" d="M588.56,757.75l-15.15,16.11A143.27,143.27,0,0,0,379.24,980.33l-15.15,16.11A165.18,165.18,0,0,1,588.56,757.75Z"/><polygon class="cls-2" points="664.03 1093.63 692.84 1123.53 494.52 1332.95 222.02 1021.86 251.59 991.6 494.52 1268.07 664.03 1093.63"/><path class="cls-1" d="M495,587.05c-168.47,0-305,136.57-305,305A304.23,304.23,0,0,0,211.2,1004l6.19-6.19,21.68-21.67,3.11-3.11a265.19,265.19,0,0,1-12.57-81c0-146.59,118.84-265.44,265.43-265.44S760.48,745.5,760.48,892.09A264.62,264.62,0,0,1,681,1081.48l28,28a304.09,304.09,0,0,0,91.06-217.39C800.09,723.62,663.52,587.05,495,587.05Z"/><polygon class="cls-1" points="709.03 1109.48 692.84 1123.53 845.63 1276.31 859.07 1262.87 709.03 1109.48"/><polygon class="cls-1" points="862.4 1306.68 780.03 1224.31 806.7 1197.64 890 1280.94 862.4 1306.68"/></svg>