<svg id="Layer_1" data-name="Layer 1" xmlns="http://www.w3.org/2000/svg" viewBox="0 0 1080 1920"><defs><style>.cls-1{fill:#2b4353;}.cls-2{fill:#f83c18;}</style></defs><path class="cls-1" d="M103.33,1256.26v139.92h81.12v18.48H82v-158.4Z"/><path class="cls-1" d="M310.21,1256.26v18.48H226.93v121.44h83.28v18.48H205.57v-158.4Zm-25.2,69.6v18.24H214.93v-18.24Z"/><path class="cls-1" d="M353.17,1256.26l77.52,127.2h-4.8v-127.2H447v157.92h-20.4l-77-126.24h4.08l.24,126.24H332.53V1256.26Z"/><path class="cls-1" d="M505.32,1256.26v76.8l67.2-76.8h24l-55.92,67,59.52,91H575.88L526,1337.86l-20.64,23v53.28H484V1256.26Z"/><path class="cls-1" d="M684.36,1256.26A49.8,49.8,0,0,1,708.6,1262a39.76,39.76,0,0,1,16.2,16.08q5.64,10.32,5.64,24,0,13.45-5.88,23.64A39.69,39.69,0,0,1,708,1341.46q-10.68,5.54-24.6,5.52H640.2v-17h41q12.72,0,20.4-7.56t7.68-19.8q0-12.72-7.68-20.28t-20.4-7.56H642.6v139.92H621.24v-158.4Zm8.16,79,37.92,79.44h-22.8l-36.24-79Z"/><path class="cls-1" d="M820.2,1256.26l51.36,158.4h-22.8l-43.2-137.28h1.92l-42.72,137.28H742l51.12-158.4Zm25.2,104.88.24,16.32h-78l.24-16.32Z"/><path class="cls-1" d="M949.08,1256.26q15.58,0,27.24,5.52a41.84,41.84,0,0,1,18,15.72q6.34,10.21,6.36,23.88v68.4q0,13.68-6.36,23.76a42.05,42.05,0,0,1-18,15.6q-11.66,5.53-27.24,5.52H892.44v-158.4Zm22.08,131.88q7.92-8,8.16-21.72v-61.68q0-13.68-7.92-21.84T950,1274.74H913.8v121.44H950Q963.23,1396.18,971.16,1388.14Z"/><path class="cls-2" d="M633,833.62,654.55,855a227.74,227.74,0,0,0,68.86-163.44c0-126.12-102.24-228.36-228.37-228.36S266.68,565.46,266.68,691.58,368.92,919.94,495,919.94a227.44,227.44,0,0,0,142.57-50l-21.92-21.37a197.1,197.1,0,0,1-120.65,41c-109.37,0-198-88.66-198-198s88.65-198,198-198,198,88.65,198,198A197.37,197.37,0,0,1,633,833.62Z"/><path class="cls-2" d="M588.56,557.24l-15.15,16.11A143.27,143.27,0,0,0,379.24,779.82l-15.15,16.11A165.18,165.18,0,0,1,588.56,557.24Z"/><polygon class="cls-1" points="664.03 893.12 692.84 923.02 494.52 1132.44 222.02 821.35 251.59 791.09 494.52 1067.55 664.03 893.12"/><path class="cls-2" d="M495,386.54c-168.47,0-305,136.57-305,305a304.23,304.23,0,0,0,21.2,111.94l6.19-6.19,21.68-21.68,3.11-3.11a265.08,265.08,0,0,1-12.57-81C229.61,545,348.45,426.14,495,426.14S760.48,545,760.48,691.58A264.65,264.65,0,0,1,681,881l28,28a304.09,304.09,0,0,0,91.06-217.39C800.09,523.11,663.52,386.54,495,386.54Z"/><polygon class="cls-2" points="709.03 908.97 692.84 923.02 845.63 1075.8 859.07 1062.35 709.03 908.97"/><polygon class="cls-2" points="862.4 1106.17 780.03 1023.8 806.7 997.13 890 1080.43 862.4 1106.17"/></svg>